<?xml version="1.0" encoding="UTF-8"?>
<svg id="Layer_2" data-name="Layer 2" xmlns="http://www.w3.org/2000/svg" viewBox="0 0 325.5 42.58">
  <defs>
    <style>
      .cls-1 {
        fill: #113a6a;
      }
    </style>
  </defs>
  <g id="_레이어_1" data-name="레이어 1">
    <g>
      <path class="cls-1" d="M37.17,6.94l-.04.09c-.75-.89-1.7-1.5-2.88-1.62-1.61-.17-3.23-.1-4.84-.06-2.36.06-4.23,2.05-4.23,4.42,0,2.38,1.87,4.33,4.24,4.41,1.26.04,2.52.02,3.77.02.81,0,1.59.14,2.35.41,2.78,1,4.61,3.98,4.22,6.88-.41,3.09-2.91,5.53-5.93,5.72-2.36.15-4.63-.34-6.82-1.22-.23-.09-.24-.18-.12-.37.16-.25.3-.52.45-.78.45-.79.44-.77,1.31-.49,1.71.55,3.45.96,5.26.74,2.24-.28,3.83-2.23,3.79-4.56-.04-2.13-1.8-4.02-3.95-4.2-1.35-.11-2.72-.02-4.07-.04-.59,0-1.17-.07-1.74-.22-3.12-.82-5.12-3.77-4.81-7.09.28-2.99,2.9-5.51,5.97-5.7,1.03-.07,2.06-.02,3.09-.04.14,0,.29.04.46-.07-.11-.07-.18-.12-.25-.16-.17-.11-.34-.21-.51-.31-.04-.02-.09-.05-.13-.07-.12-.07-.24-.14-.37-.2-1.4-.75-2.89-1.34-4.46-1.77-1.45-.38-2.95-.59-4.49-.64-4.35-.15-8.41.82-12.14,3.09-.35.21-.47.44-.46.84.01,5.69,0,11.38,0,17.08q0,.71.72.71h6.3c-1.36.41-2.56,1.1-3.64,2-.13.11-.27.07-.41.07-1.5,0-3-.01-4.5.01-.41,0-.54-.07-.54-.52.02-5.95.01-11.9,0-17.85v-.67C3.02,8.7,0,14.62,0,21.25c0,11.78,9.55,21.34,21.34,21.34s21.34-9.55,21.34-21.34c0-5.5-2.08-10.52-5.51-14.3ZM28.48,36.6c-1.35,2.2-3.24,3.73-5.72,4.43-2.93.83-5.72.46-8.27-1.26-2.25-1.51-3.7-3.62-4.21-6.26-1.1-5.67,2.78-11.01,8.44-11.71,2.15-.27,4.17.19,6.13,1.01.75.31,1.49.64,2.25.94.26.1.25.2.12.4-.26.42-.52.86-.74,1.3-.12.24-.25.24-.47.14-1.23-.56-2.46-1.14-3.78-1.48-4.2-1.08-8.32,1.12-9.59,5.13-.18.57-.3,1.16-.33,1.76-.05.37-.05.75,0,1.12.12,2.14,1.04,3.92,2.63,5.28,3.66,3.14,9.17,2.18,11.61-1.84.23-.38.4-.45.76-.19.32.23.68.43,1.04.6.34.16.32.33.15.62Z"/>
      <g>
        <g>
          <path class="cls-1" d="M259.61,12.77v-3.69h6.39v-4.2h4.41v4.2h6.21v3.69h-17.01ZM268.24,30.36c-2.28,0-4.13-.73-5.56-2.21-1.42-1.47-2.13-3.41-2.13-5.82s.7-4.34,2.11-5.8c1.41-1.45,3.27-2.18,5.58-2.18s4.12.73,5.52,2.19c1.4,1.46,2.1,3.39,2.1,5.79s-.7,4.35-2.09,5.82c-1.39,1.47-3.24,2.21-5.53,2.21ZM268.24,18.19c-1.07,0-1.9.37-2.5,1.12-.59.75-.89,1.75-.89,3.03s.3,2.29.91,3.07c.61.78,1.43,1.16,2.48,1.16s1.86-.39,2.46-1.16c.61-.78.91-1.8.91-3.07s-.3-2.26-.89-3.02c-.59-.75-1.42-1.13-2.48-1.13ZM285.02,38.12v-16h-2.51v16h-4.18V4.88h4.18v13.52h2.51V4.88h4.32v33.24h-4.32Z"/>
          <path class="cls-1" d="M292.33,22.74v-3.72c2,0,4.03.05,6.97,0v-6.51h4.45v6.51h10.9v3.72h-22.32ZM307.96,8.96h-13.07v-3.7h17.52v11.8h-4.45v-8.1ZM309.19,37.95c-3.64,0-6.47-.6-8.51-1.79-2.03-1.19-3.05-2.81-3.05-4.86s1.02-3.65,3.06-4.83c2.04-1.19,4.87-1.78,8.5-1.78s6.45.6,8.48,1.79c2.03,1.19,3.04,2.8,3.04,4.83s-1.01,3.65-3.03,4.85c-2.02,1.2-4.85,1.8-8.49,1.8ZM309.19,28.33c-4.65,0-6.97.99-6.97,2.96s2.32,3,6.97,3,6.97-1,6.97-3-2.32-2.96-6.97-2.96ZM320.47,16.81v7.12h-4.45V4.88h4.45v8.17h5.03v3.76h-5.03Z"/>
        </g>
        <path class="cls-1" d="M52.3,20.14V5.26h2v5.59h11.41v-5.59h2v6.71h7.21v-7.84h2.04v17.91h-2.04v-8.3h-7.21v6.4h-15.41ZM65.71,12.57h-11.41v5.83h11.41v-5.83ZM56.18,37.07v-13.27h2v4.8h16.73v-4.8h2v13.27h-20.74ZM74.92,30.32h-16.73v5.04h16.73v-5.04Z"/>
        <path class="cls-1" d="M97.65,25.12v12.94h-2.04v-12.94h-14.62v-1.77h31.28v1.77h-14.62ZM86.17,18.18V5.4h20.88v12.78h-20.88ZM105.05,7.12h-16.87v9.33h16.87V7.12Z"/>
        <path class="cls-1" d="M114.4,20.14V5.26h2v5.59h11.41v-5.59h2v6.71h7.21v-7.84h2.04v17.91h-2.04v-8.3h-7.21v6.4h-15.41ZM127.81,12.57h-11.41v5.83h11.41v-5.83ZM118.28,37.07v-13.27h2v4.8h16.73v-4.8h2v13.27h-20.74ZM137.02,30.32h-16.73v5.04h16.73v-5.04Z"/>
        <path class="cls-1" d="M152.4,22.59c-1.23,0-2.38-.21-3.45-.63-1.07-.42-1.99-1.01-2.77-1.76-.78-.75-1.39-1.64-1.84-2.67-.45-1.03-.67-2.16-.67-3.38s.22-2.41.66-3.44c.44-1.03,1.05-1.91,1.82-2.65.77-.73,1.69-1.3,2.76-1.7,1.07-.4,2.23-.6,3.48-.6s2.41.2,3.47.61c1.06.4,1.98.97,2.75,1.7.77.73,1.38,1.61,1.81,2.65.43,1.03.65,2.17.65,3.43s-.22,2.34-.66,3.37c-.44,1.03-1.05,1.92-1.82,2.67-.77.76-1.69,1.35-2.75,1.77-1.06.42-2.21.63-3.45.63ZM152.4,7.46c-1,0-1.91.16-2.73.49-.83.33-1.54.79-2.13,1.38-.6.59-1.06,1.3-1.4,2.12-.33.82-.5,1.72-.5,2.71s.16,1.93.49,2.75c.33.83.79,1.53,1.39,2.12.6.59,1.31,1.04,2.14,1.36.83.32,1.75.48,2.74.48s1.91-.16,2.74-.48c.83-.32,1.55-.78,2.15-1.36.6-.59,1.06-1.29,1.39-2.12.33-.83.49-1.74.49-2.75s-.17-1.88-.5-2.71c-.33-.82-.8-1.53-1.4-2.12-.6-.59-1.31-1.05-2.13-1.38-.83-.33-1.74-.49-2.73-.49ZM148.07,36.88v-10.72h2.04v8.95h20.02v1.77h-22.06ZM167.16,4.13h2.04v24.57h-2.04V4.13Z"/>
        <path class="cls-1" d="M189.6,37.79v-12.78h-8.47v-1.77h31.28v1.77h-8.47v12.78h-2.04v-12.78h-10.26v12.78h-2.04ZM196.77,18.74c-1.52,0-2.95-.15-4.27-.46-1.32-.3-2.48-.75-3.46-1.35-.98-.6-1.76-1.34-2.33-2.22-.57-.88-.85-1.91-.85-3.07s.29-2.2.86-3.09c.57-.89,1.35-1.64,2.34-2.24.98-.6,2.14-1.06,3.46-1.36,1.32-.3,2.74-.46,4.25-.46s2.97.16,4.31.46c1.34.31,2.5.77,3.49,1.37.99.6,1.77,1.35,2.34,2.24.57.89.85,1.92.85,3.08s-.29,2.2-.86,3.08c-.58.88-1.36,1.62-2.35,2.22-.99.6-2.15,1.04-3.49,1.34-1.34.3-2.77.45-4.29.45ZM196.77,6.17c-1.48,0-2.77.14-3.87.43-1.11.29-2.04.68-2.79,1.17-.75.49-1.31,1.07-1.69,1.73-.38.66-.56,1.37-.56,2.13s.19,1.47.56,2.13c.37.66.94,1.23,1.69,1.71.75.49,1.68.87,2.79,1.15,1.11.28,2.4.42,3.87.42s2.76-.14,3.87-.42c1.12-.28,2.06-.66,2.81-1.15.75-.49,1.33-1.06,1.71-1.71.39-.66.58-1.37.58-2.13s-.19-1.46-.57-2.13c-.38-.67-.95-1.25-1.7-1.74-.76-.49-1.69-.88-2.81-1.17-1.12-.29-2.42-.43-3.89-.43Z"/>
        <path class="cls-1" d="M214.38,10.11v-1.7h8.95V3.85h2.04v4.55h8.95v1.7h-19.93ZM224.38,24.94c-1.18,0-2.28-.15-3.29-.45-1.01-.3-1.88-.72-2.61-1.27-.73-.55-1.3-1.2-1.72-1.96-.42-.76-.62-1.61-.62-2.55s.21-1.83.62-2.6c.42-.77.99-1.43,1.73-1.98.74-.55,1.62-.96,2.63-1.26,1.01-.29,2.11-.44,3.3-.44s2.26.14,3.27.44c1.01.29,1.88.71,2.63,1.26.74.54,1.33,1.2,1.75,1.98.42.77.63,1.64.63,2.6s-.21,1.79-.64,2.56c-.43.77-1.02,1.42-1.77,1.97-.75.54-1.63.96-2.64,1.26-1.01.29-2.1.44-3.27.44ZM224.41,14.08c-1.01,0-1.9.13-2.67.38-.77.25-1.43.59-1.97,1.01-.54.42-.95.91-1.22,1.48-.28.56-.41,1.15-.41,1.77s.14,1.23.41,1.78c.28.56.68,1.04,1.22,1.45.54.41,1.2.74,1.97.98.77.24,1.66.36,2.67.36s1.9-.12,2.68-.36c.78-.24,1.44-.57,1.97-.98.53-.41.94-.89,1.21-1.45.28-.56.41-1.15.41-1.78s-.14-1.23-.41-1.79c-.28-.56-.68-1.05-1.21-1.48-.53-.42-1.19-.76-1.97-1-.78-.25-1.67-.37-2.68-.37ZM219.39,36.84v-9.45h2.04v7.73h20.07v1.72h-22.11ZM240.34,17.68v11.32h-2.04V3.92h2.04v11.99h5.08v1.78h-5.08Z"/>
        <path class="cls-1" d="M179.02,36.84c-3.6-4.16-5.4-9.29-5.4-15.4s1.82-11.54,5.45-15.73h2.05c-3.69,4.32-5.54,9.55-5.54,15.69s1.83,11.02,5.48,15.43h-2.05Z"/>
        <path class="cls-1" d="M245.47,36.84c3.66-4.42,5.48-9.57,5.48-15.43s-1.85-11.35-5.54-15.69h2.07c3.62,4.21,5.43,9.45,5.43,15.73s-1.8,11.24-5.4,15.4h-2.05Z"/>
      </g>
    </g>
  </g>
</svg>